<?xml version="1.0" encoding="UTF-8"?>
<!-- Created with Inkscape (http://www.inkscape.org/) -->
<svg version="1.1" viewBox="0 0 512 512" xml:space="preserve" xmlns="http://www.w3.org/2000/svg"><g><path d="m189.52539 22.103516-16.61719 16.61914 16.61719 16.619141-16.61719 16.617187 49.85352 49.855466 16.61914-16.61718 16.61719 16.61914 16.61914-16.61914 16.61719 16.61914 33.23828-33.238285-16.61719-16.617187 16.61914-16.619141 33.23633 33.236328 16.61718-16.619141-33.23632-33.236328-16.61914 16.617188-16.61719-16.617188-16.61914 16.619141-16.61719-16.619141-16.61914 16.619141-33.23633-33.236328-16.61914 16.617187zm166.18555 66.474609-16.61914 16.619145 16.61914 16.61718 16.61718-16.61718zm0 33.236325-49.85547 49.85547-16.61719-16.61719-16.61914 16.61915-16.61914-16.61915-16.61914 16.61719-16.61719-16.61719-16.61719 16.61719-66.4746-66.47265 16.61718-16.619145-16.61718-16.619141 33.23632-33.236328-16.61914-16.617187-33.23633 33.236328 16.61719 16.619141-16.61719 16.617187 16.61719 16.617185-16.61719 16.61914 49.85547 49.85547-66.47461 66.47461 16.61914 16.61719 66.47461-66.47266 16.61719 16.61719 16.61914-16.61719 16.61914 16.61914 16.61719-16.61914 16.61914 16.61719 16.61524-16.61719h2e-3l16.61719 16.61719 16.61914-16.61719 66.47461 66.47266 16.61914-16.61719-66.47657-66.47461 33.23828-33.23633zm33.23633 132.94727-16.61915 16.61719 33.23829 33.23828 16.61718-16.61914zm16.61914 49.85547-16.61914 16.61914 16.61914 16.61719 16.61718-16.61719zm0 33.23633-33.23829 33.23828 16.61915 16.61718-66.47266 66.47266-16.61719-16.61719-33.23828 33.23633-16.61914-16.61719-16.61914 16.61719-33.23633-33.23633-16.61719 16.61914 33.23633 33.23633 16.61914-16.61719 16.61719 16.61719 16.61914-16.61719 16.61914 16.61719 33.23438-33.23633h2e-3l16.61719 16.61719 66.47461-66.47266-16.61719-16.61914 33.23437-33.23632zm-216.03907 116.33007-66.47461-66.47461 16.61915-16.61718-33.23829-33.23828-16.617184 16.61914 33.234374 33.23632-16.61719 16.61914 66.47461 66.47266zm-83.09375-116.33007 16.61914-16.61719-16.61914-16.61914-16.617184 16.61914zm0-33.23633 33.23829-33.23828-16.61915-16.61719-33.236324 33.23633zm99.71094-33.23633-49.85547 49.85547 99.71289 99.70898 99.71094-99.71093-49.85742-49.85352-49.85352 49.85352z"/></g></svg>
