<?xml version="1.0" encoding="UTF-8"?>
<!-- Created with Inkscape (http://www.inkscape.org/) -->
<svg version="1.1" viewBox="0 0 1395 512" xml:space="preserve" xmlns="http://www.w3.org/2000/svg"><path d="m135.44683 19.970808-16.85795 16.859933 16.85795 16.859935-16.85795 16.857952 50.57584 50.577822 16.85993-16.85795 16.85796 16.85994 16.85992-16.85994 16.85796 16.85994 33.71988-33.719878-16.85796-16.857952 16.85993-16.859934 33.71789 33.717886 16.85795-16.859934-33.71788-33.717887-16.85993 16.857953-16.85796-16.857953-16.85993 16.859935-16.85795-16.859935-16.85994 16.859935-33.71788-33.717887-16.85995 16.857952zm168.5934 67.437754-16.85993 16.859938 16.85993 16.85795 16.85795-16.85795zm0 33.717888-50.57782 50.57783-16.85796-16.85796-16.85992 16.85994-16.85994-16.85994-16.85994 16.85796-16.85794-16.85796-16.85796 16.85796-67.437757-67.43578 16.857947-16.859938-16.857947-16.859934 33.717887-33.717887-16.85994-16.857952-33.717877 33.717887 16.85796 16.859934-16.85796 16.857952 16.85796 16.857948-16.85796 16.85994 50.577817 50.57783-67.437757 67.43774 16.85994 16.85796 67.437747-67.43578 16.85795 16.85796 16.85995-16.85796 16.85992 16.85994 16.85796-16.85994 16.85994 16.85796 16.85596-16.85796h3e-3l16.85796 16.85796 16.85993-16.85796 67.43776 67.43578 16.85993-16.85796-67.43975-67.43774 33.71986-33.7179zm33.71789 134.87353-16.85994 16.85796 33.71986 33.71986 16.85796-16.85993zm16.85992 50.57782-16.85992 16.85995 16.85992 16.85794 16.85796-16.85794zm0 33.71789-33.71986 33.71988 16.85994 16.85794-67.43578 67.43578-16.85795-16.85796-33.71986 33.71789-16.85994-16.85795-16.85994 16.85795-33.71789-33.71789-16.85795 16.85994 33.7179 33.71788 16.85992-16.85796 16.85796 16.85796 16.85994-16.85796 16.85992 16.85796 33.71592-33.71788h3e-3l16.85794 16.85795 67.43776-67.43577-16.85796-16.85994 33.7159-33.71788zm-219.16923 118.01558-67.437747-67.43776 16.85993-16.85794-33.71987-33.71988-16.857947 16.85994 33.715897 33.71788-16.85795 16.85994 67.437757 67.43577zm-84.297687-118.01558 16.85994-16.85794-16.85994-16.85995-16.857947 16.85995zm0-33.71789 33.71987-33.71986-16.85993-16.85796-33.717887 33.71789zm101.15564-33.71788-50.57782 50.57783 101.15763 101.15366 101.15565-101.15565-50.57981-50.57584-50.57584 50.57584z"/><g transform="translate(523.44238,-139.32617)"><path d="m-95.87682 431.5291v107.23932h24.50108v-84.43448h17.71612v84.43448h24.50107v-84.43448h17.71617v84.43448h24.50108v-86.1307h-21.1086v-21.10862h-24.50108v21.10861h-17.71617v-21.10861zm141.57108 0v21.10861h-21.10859v65.02209h21.10859v21.10862h66.71833v-21.10861h21.1086v-22.80484h-24.50107v21.1086h-59.93337v-61.62963h59.93337v21.10865h24.50107v-22.80487h-21.1086v-21.10861zm99.3539-42.21723v149.45655h87.82691v-21.10861h21.1086v-65.02209h-21.1086v-21.10861h-45.60972v21.10861h-17.71611v-63.32585zm44.66733 64.64514h40.52098v62.3835h-61.62963v-41.27489h21.10865zm75.7951-22.42791v86.1307h21.10865v21.10862h45.60966v-21.10861h17.71616v21.10861h24.50109v-22.80485h-21.10865v-84.43446h-24.50107v84.43446h-38.82476v-84.43446zm120.46249 0v107.23932h24.50108v-63.32583h21.10865v-21.10865h38.82475v84.43448h24.50108v-86.1307h-21.10861v-21.10862h-45.60971v21.10861h-17.71616v-21.10861zm183.78837-42.21723v42.21723h-42.21724v21.10861h-21.10861v65.02209h21.10861v21.10862h45.60973v-21.10861h17.71611v21.10861h24.50107v-22.80486h-21.10858v-126.65169zm-39.76712 64.64514h40.52098v62.3835h-40.52098zm74.23621-64.64514v22.80485h21.10859v105.54309h21.10865v21.10861h45.60966v-22.80486h-42.21722v-126.65169zm120.46253 42.21723v21.10861h-21.10863v65.02209h21.10863v21.10862h87.82689v-22.80486h-84.43444v-19.4124h84.43444v-43.91345h-21.10863v-21.10861zm2.45009 22.42791h61.62961v20.16625h-61.62961z" color="#000000" stroke-linecap="square" stroke-width=".999992" style="-inkscape-stroke:none;paint-order:markers stroke fill"/></g></svg>
