<?xml version="1.0" encoding="UTF-8"?>
<!-- Created with Inkscape (http://www.inkscape.org/) -->
<svg version="1.1" viewBox="0 0 512 512" xml:space="preserve" xmlns="http://www.w3.org/2000/svg"><path d="m200.23065 19.970809-12.86932 12.870829 12.86932 12.870829-12.86932 12.869316 38.60946 38.610972 12.87083-12.869311 12.86932 12.870829 12.87083-12.870829 12.86932 12.870829 25.74165-25.741661-12.86931-12.869316 12.87082-12.870829 25.74015 25.740145 12.86931-12.870829-25.74014-25.740145-12.87083 12.869316-12.86931-12.869316-12.87083 12.870829-12.86932-12.870829-12.87083 12.870829-25.74015-25.740145-12.87082 12.869316zm128.70375 51.481803-12.87083 12.870832 12.87083 12.869311 12.86931-12.869311zm0 25.740143-38.61097 38.610975-12.86932-12.86932-12.87083 12.87084-12.87083-12.87084-12.87083 12.86932-12.86932-12.86932-12.86931 12.86932-51.4818-51.480286 12.86931-12.870832-12.86931-12.870829 25.74014-25.740145-12.87083-12.869316-25.74015 25.740145 12.86932 12.870829-12.86932 12.869316 12.86932 12.869314-12.86932 12.870829 38.61098 38.610975-51.4818 51.4818 12.87082 12.86932 51.48181-51.48029 12.86932 12.86932 12.87082-12.86932 12.87083 12.87083 12.86932-12.87083 12.87083 12.86932 12.86781-12.86932h2e-3l12.86931 12.86932 12.87083-12.86932 51.48181 51.48029 12.87083-12.86932-51.48333-51.4818 25.74166-25.74015zm25.74015 102.9621-12.87084 12.86932 25.74167 25.74166 12.86931-12.87083zm12.87083 38.61098-12.87083 12.87082 12.87083 12.86932 12.86931-12.86932zm0 25.74014-25.74167 25.74166 12.87084 12.86931-51.4803 51.48029-12.86931-12.86931-25.74166 25.74014-12.87083-12.86932-12.87083 12.86932-25.74014-25.74014-12.86932 12.87082 25.74014 25.74015 12.87083-12.86932 12.86932 12.86932 12.87083-12.86932 12.87083 12.86932 25.73863-25.74015h2e-3l12.86932 12.86932 51.48181-51.48029-12.86932-12.87083 25.73863-25.74014zm-167.31322 90.09277-51.48181-51.4818 12.87084-12.86931-25.74166-25.74166-12.86932 12.87083 25.73863 25.74014-12.86931 12.87083 51.4818 51.48029zm-64.35263-90.09277 12.87082-12.86932-12.87082-12.87082-12.86932 12.87082zm0-25.74014 25.74166-25.74166-12.87084-12.86932-25.74014 25.74015zm77.22195-25.74015-38.61098 38.61097 77.22346 77.22044 77.22195-77.22195-38.61248-38.60946-38.60947 38.60946z"/><path d="m28.393037 428.48222v53.73954h12.277928v-42.31163h8.877867v42.31163h12.277928v-42.31163h8.877889v42.31163h12.277928v-43.16164h-10.577897v-10.5779h-12.277929v10.5779h-8.877888v-10.5779zm70.943809 0v10.5779h-10.577898v32.58374h10.577898v10.5779h33.433744v-10.5779h10.5779v-11.42792h-12.27793v10.5779h-30.03368v-30.88371h30.03368v10.57792h12.27793v-11.42793h-10.5779v-10.5779zm49.788014-21.15581v74.89535h44.01164v-10.5779h10.5779v-32.58374h-10.5779v-10.5779h-22.85585v10.5779h-8.87786v-31.73371zm22.3836 32.39484h20.30579v31.26149h-30.88371v-20.68359h10.57792zm37.98229-11.23903v43.16164h10.57792v10.5779h22.85582v-10.5779h8.87789v10.5779h12.27793v-11.42792h-10.57792v-42.31162h-12.27793v42.31162h-19.45578v-42.31162zm60.36591 0v53.73954h12.27793v-31.73371h10.57792v-10.57792h19.45578v42.31163h12.27793v-43.16164h-10.5779v-10.5779h-22.85584v10.5779h-8.87789v-10.5779zm92.09965-21.15581v21.15581h-21.15582v10.5779h-10.5779v32.58374h10.5779v10.5779h22.85585v-10.5779h8.87787v10.5779h12.27792v-11.42792h-10.57789v-63.46743zm-19.92802 32.39484h20.30579v31.26149h-20.30579zm37.2011-32.39484v11.42792h10.57789v52.88953h10.57792v10.5779h22.85583v-11.42792h-21.15582v-63.46743zm60.36591 21.15581v10.5779h-10.5779v32.58374h10.5779v10.5779h44.01166v-11.42792h-42.31163v-9.7279h42.31163v-22.00582h-10.57792v-10.5779zm1.2278 11.23903h30.88371v10.10567h-30.88371z" color="#000000" stroke-linecap="square" style="-inkscape-stroke:none;paint-order:markers stroke fill"/></svg>
