<?xml version="1.0" encoding="UTF-8"?>
<!-- Created with Inkscape (http://www.inkscape.org/) -->
<svg version="1.1" viewBox="0 0 512 512" xml:space="preserve" xmlns="http://www.w3.org/2000/svg"><g transform="matrix(.77445817 0 0 .77445817 53.451155 2.8525552)" stroke-width="1.29122"><path d="m123.05273 254.76172-33.236324 33.23633 16.617184 16.61914-16.617184 16.61914 16.617184 16.61719-16.617184 16.61914 33.234374 33.23632-16.61719 16.61914 66.47461 66.47266 16.61914-16.61719 33.23633 33.23633 16.61914-16.61719 16.61719 16.61719 16.61914-16.61719 16.61914 16.61719 33.23438-33.23633h2e-3l16.61714 16.61719 66.47461-66.47266-16.61719-16.61914 33.23437-33.23632-16.61718-16.61914 16.61718-16.61719-16.61718-16.61914 16.61718-16.61914-33.23632-33.23633z" fill="#441400"/><path d="m174.91016 169.66992-2 2h-2e-3l-2e-3 4e-3 -66.47266 66.4707 16.61914 16.61719h265.89454l16.61914-16.61719-68.47657-68.47461-2 2h-158.17959z" fill="#582111"/><path d="m256 454.18359-16.61719 16.61914-33.23828-33.23828-16.61719 16.61914-66.47656-66.47461 16.6211-16.61718-33.23829-33.23828 16.61914-16.61719-16.61914-16.61914 33.23829-33.23828-16.61915-16.61672 66.47461-66.47313 16.61719 16.61719 16.61914-16.61719 16.61914 16.61914 16.61719-16.61914 16.61914 16.61719 16.61724-16.61719 16.61719 16.61719 16.61909-16.61719 66.47461 66.47266-16.61915 16.61719 33.23829 33.23828-16.61914 16.61914 16.61914 16.61719-33.23829 33.23828 16.61915 16.61718-66.47266 66.47266-16.61719-16.61719-33.23828 33.23633z" fill="#a84f2b" style="paint-order:markers stroke fill"/><path d="m123.05273 287.99805-16.61914 16.61914 16.61919 16.61919v-2e-3l16.61719-16.61719zm0 33.23828-16.61914 16.61719 33.23829 33.23632 16.61718-16.61718zm16.61915 49.85351-16.61915 16.61914 33.23829 33.23633-2e-3 2e-3 33.23828 33.23632 16.61719-16.61718-31.23633-31.23829-2-2zm249.27539-83.09179-16.61915 16.61914 16.61919 16.61919 16.61919-16.61919zm0 33.23828-33.23829 33.23633 16.61719 16.61523-33.23437 33.24023-2 2-31.23633 31.23829 16.61719 16.61718 33.23828-33.23632-4e-3 -4e-3 33.24024-33.23633-16.61915-16.61914 33.23829-33.23437zm-149.56641 116.32812-16.61914 16.61719 16.61914 16.61914 16.61914-16.61719 16.61914 16.61719 16.61914-16.61719-16.61914-16.61914-16.61914 16.61719z" fill="#65271f"/><path d="m156.28906 221.52344-33.23633 33.23828 16.61915 16.61719-16.61915 16.61914 16.61915 16.61914 33.23632-33.23828-16.61914-16.61719 16.61914-16.6211zm-16.61718 83.09375-16.61915 16.61914 16.61915 16.61914 16.61718-16.61914zm216.03906-83.09375-16.61914 16.61718 16.61914 16.6211-16.61914 16.61719 33.23632 33.23828 16.61915-16.61914-16.61915-16.61914 16.61915-16.61719zm16.61718 83.09375-16.61718 16.61914 16.61718 16.61914 16.61915-16.61914zm-16.61914 49.85351-83.08984 83.09375 16.61914 16.61524 83.08984-83.08985zm-83.08984 83.09375-16.61914-16.61718-16.61914 16.61718-83.08984-83.09179-16.61914 16.61914 83.08984 83.08984 16.61914-16.61523 16.61914 16.61718z" fill="#883619"/><path d="m189.52734 188.28906-33.23828 33.23633 16.61914 16.61914 16.61719-16.61914h2e-3l8.3086 8.30859 8.30859 8.31055 16.61914-16.61914 16.61914 16.61914 16.61714-16.61914 16.61914 16.61914 16.61719-16.61914 16.61914 16.61914 16.61914-16.62109 16.61719 16.61718 16.61914-16.61718-16.61914-16.61719-16.61719-16.61719-16.61914 16.61719-16.61719-16.61719-16.61914 16.61719-16.61719-16.61719-16.61914 16.61719h-2e-3l-16.61719-16.61719-16.61914 16.61719-8.30859-8.30859z" fill="#994624"/><path d="m206.14453 271.38086-49.85547 49.85547 99.71289 99.70898 99.71094-99.71093-49.85742-49.85352-49.85352 49.85352z" fill="#ffe600"/><path d="m272.61717 341.85546-18.61718-18.61914 37.23632-37.23632 18.61915 18.61718z" fill="#ffd200"/><path d="m337.09178 302.61717 18.61842 18.61842-16.61842 16.61841-18.61842-18.61841" fill="#ffec3e"/><path d="m206.14453 271.38086-16.61719 16.61914 83.08985 83.0918 51.85742-51.85742-16.61914-16.61719-35.23633 35.23633z" fill="#ffec3e"/><path d="m322.4746 321.23632 16.61718-16.61914-33.23631-33.23632-16.61915 16.61718z" fill="#fff"/><path d="m172.90625 304.61719-16.61719 16.61914 99.71094 99.70898 16.61914-16.61719z" fill="#ffd200"/><path d="m339.09178 238.14062 16.61842 16.61842-16.61842 16.61841-16.61842-16.61841" fill="#a97452"/><path d="m339.09241 204.90441 16.61842 16.61841-16.61842 16.61842-16.61842-16.61842" fill="#a5704e"/><path d="m222.76367 188.28711-16.61914 16.61914 16.61914 16.61914 16.61719-16.61914zm16.61719 16.61914 16.61914 16.61914 16.61914-16.61914-16.61914-16.61914zm33.23828 0 16.61914 16.61914 16.61719-16.61914 16.61914 16.61719 16.61719-16.61914-16.61719-16.61719-16.61914 16.61719-16.61719-16.61719z" fill="#96633e"/><path d="m156.28906 22.105469-33.23633 33.236328 16.61719 16.619141-16.61719 16.617187 16.61719 16.617185-16.61719 16.61914 83.0918 83.0918 16.61914-16.61719 16.61914 16.61914 16.61719-16.61914 16.61914 16.61719 16.61524-16.61719h2e-3l16.61719 16.61719 66.4746-66.47266-16.61718-16.61914 16.61718-16.61718-16.61723-16.619145 16.61718-16.619141-33.23632-33.236328-16.61914 16.617188-16.61719-16.617188-16.61719 16.619141h-2e-3l-16.61714-16.619141-16.61914 16.619141-33.23633-33.236328-16.61914 16.617187-16.61914-16.617187-16.61719 16.617187z" fill="#582111"/><path d="m256 155.05273-16.61914 16.61719-16.61719-16.61719-16.61719 16.61719-66.4746-66.47265 16.61718-16.619145-16.61914-16.617187 33.23828-33.238282 16.61719 16.619141 24.90869 26.588379 71.44727 0.632813 19.97412-10.602051 16.61914-16.619141 33.23633 33.236328-16.61914 16.619145 16.61914 16.61718-49.85547 49.85547-16.61719-16.61719-16.61914 16.61915z" fill="#a84f2b" style="paint-order:markers stroke fill"/><path d="m156.28906 55.341797-16.61914 16.619141 16.61914 16.61914-16.61718 16.617192 66.47265 66.47265 16.61719-16.61719 16.61914 16.61719 16.61914-16.61719 16.61914 16.61915 16.61719-16.61915-16.61719-16.61718-16.61914 16.61523-33.23828-33.23633-16.61719 16.61914-49.85351-49.853512 16.61523-16.61914zm182.80274 16.617187-16.61914 16.619141 16.61914 16.619145 16.61718-16.619145zm0 33.238286-49.85352 49.85546 16.61719 16.61719 49.85547-49.85547z" fill="#883619"/><path d="m172.9082 38.722656-16.61914 16.619141 16.61914 16.617187 16.61719-16.617187zm149.56446 16.619141-16.61719 16.619141 16.61719 16.617187 16.61914-16.617187z" fill="#994624"/><path d="m206.14453 38.724609-33.23633 33.234375 49.85352 49.855466 16.61914-16.61718 16.61719 16.61914 16.61914-16.61914 16.61719 16.61914 33.23828-33.238285-33.23538-33.236328-16.61814 16.617187-16.61914-16.617187-16.61914 16.619141z" fill="#341000"/><path d="m172.9082 171.66992-16.61914 16.61914 16.61914 16.61719 16.61914-16.61719zm16.61914 16.61914 16.61719 16.61719 16.61914-16.61719-16.61914-16.61914zm33.23633 0 16.61914 16.61914 16.61719-16.61914-16.61719-16.61718zm33.23633 0 16.61719 16.61719 16.61914-16.61719-16.61914-16.61914zm33.23633 0 16.61719 16.61719 16.61914-16.61719-16.61914-16.61914zm49.85547-16.61914-16.61719 16.61914 16.61719 16.61719 16.61914-16.61719z" fill="#441400"/></g><g stroke-linecap="square"><path d="m137.125 395.32617v21.15625h-49.789062v10.57813h-2.931641v-10.57813h-68.011719v77.74024h188.74414v-10.57813h2.93164v10.57813h86.06641v-31.73438h6.0332v31.73438h195.43945v-67.16211h-10.57812v-10.57813h-57.4336v10.57813h-10.57812v31.73242h-2.93164v-63.4668h-64.12891v21.15625h-21.15625v10.57813h-2.93164v-10.57813h-152.4668v-21.15625zm-24.08789 56.58399h6.0332v6.88281h-6.0332z" color="#000000" style="-inkscape-stroke:none;paint-order:markers stroke fill"/><path d="m28.393037 428.48222v53.73954h12.277928v-42.31163h8.877867v42.31163h12.277928v-42.31163h8.877889v42.31163h12.277928v-43.16164h-10.577897v-10.5779h-12.277929v10.5779h-8.877888v-10.5779zm70.943809 0v10.5779h-10.577898v32.58374h10.577898v10.5779h33.433744v-10.5779h10.5779v-11.42792h-12.27793v10.5779h-30.03368v-30.88371h30.03368v10.57792h12.27793v-11.42793h-10.5779v-10.5779zm49.788014-21.15581v74.89535h44.01164v-10.5779h10.5779v-32.58374h-10.5779v-10.5779h-22.85585v10.5779h-8.87786v-31.73371zm22.3836 32.39484h20.30579v31.26149h-30.88371v-20.68359h10.57792zm37.98229-11.23903v43.16164h10.57792v10.5779h22.85582v-10.5779h8.87789v10.5779h12.27793v-11.42792h-10.57792v-42.31162h-12.27793v42.31162h-19.45578v-42.31162zm60.36591 0v53.73954h12.27793v-31.73371h10.57792v-10.57792h19.45578v42.31163h12.27793v-43.16164h-10.5779v-10.5779h-22.85584v10.5779h-8.87789v-10.5779zm92.09965-21.15581v21.15581h-21.15582v10.5779h-10.5779v32.58374h10.5779v10.5779h22.85585v-10.5779h8.87787v10.5779h12.27792v-11.42792h-10.57789v-63.46743zm-19.92802 32.39484h20.30579v31.26149h-20.30579zm37.2011-32.39484v11.42792h10.57789v52.88953h10.57792v10.5779h22.85583v-11.42792h-21.15582v-63.46743zm60.36591 21.15581v10.5779h-10.5779v32.58374h10.5779v10.5779h44.01166v-11.42792h-42.31163v-9.7279h42.31163v-22.00582h-10.57792v-10.5779zm1.2278 11.23903h30.88371v10.10567h-30.88371z" color="#000000" fill="#fff" style="-inkscape-stroke:none;paint-order:markers stroke fill"/></g></svg>
